HIERARCHY
ROOT Hips
{
	OFFSET 0.000000 0.000000 0.000000
	CHANNELS 6 Xposition Yposition Zposition Zrotation Yrotation Xrotation 
	JOINT LeftUpLeg_virtual
	{
		OFFSET 0.000000 0.000000 0.000000
		CHANNELS 3 Zrotation Yrotation Xrotation
		JOINT LeftUpLeg
		{
			OFFSET 10.205400 -3.823500 0.155100
			CHANNELS 3 Zrotation Yrotation Xrotation
			JOINT LeftLeg
			{
				OFFSET 0.708757 -12.982077 0.567790
				CHANNELS 3 Zrotation Yrotation Xrotation
				JOINT LeftFoot
				{
					OFFSET -0.708756 -10.717838 -2.184338
					CHANNELS 3 Zrotation Yrotation Xrotation
					JOINT LeftToeBase
					{
						OFFSET 0.108149 -7.191104 7.560241
						CHANNELS 3 Zrotation Yrotation Xrotation
						End Site
						{
							OFFSET 0.000000 0.000000 0.000000
						}
					}
				}
			}
		}
	}
	JOINT RightUpLeg_virtual
	{
		OFFSET 0.000000 0.000000 0.000000
		CHANNELS 3 Zrotation Yrotation Xrotation
		JOINT RightUpLeg
		{
			OFFSET -10.205400 -3.823500 0.005500
			CHANNELS 3 Zrotation Yrotation Xrotation
			JOINT RightLeg
			{
				OFFSET -0.708756 -12.982134 0.610632
				CHANNELS 3 Zrotation Yrotation Xrotation
				JOINT RightFoot
				{
					OFFSET 0.708754 -10.717769 -1.945823
					CHANNELS 3 Zrotation Yrotation Xrotation
					JOINT RightToeBase
					{
						OFFSET -0.108140 -7.191069 7.372968
						CHANNELS 3 Zrotation Yrotation Xrotation
						End Site
						{
							OFFSET 0.000000 0.000000 0.000000
						}
					}
				}
			}
		}
	}
	JOINT Spine_virtual
	{
		OFFSET 0.000000 0.000000 0.000000
		CHANNELS 3 Zrotation Yrotation Xrotation
		JOINT Spine
		{
			OFFSET 0.000000 6.876099 0.125700
			CHANNELS 3 Zrotation Yrotation Xrotation
			JOINT Spine1
			{
				OFFSET 0.000000 8.022060 0.146608
				CHANNELS 3 Zrotation Yrotation Xrotation
				JOINT Spine2
				{
					OFFSET 0.000000 9.168068 0.167552
					CHANNELS 3 Zrotation Yrotation Xrotation
					JOINT Neck_virtual
					{
						OFFSET 0.000000 0.000000 0.000000
						CHANNELS 3 Zrotation Yrotation Xrotation
						JOINT Neck
						{
							OFFSET 0.000000 10.314075 0.188496
							CHANNELS 3 Zrotation Yrotation Xrotation
							JOINT Head
							{
								OFFSET 0.000000 7.643700 -2.377400
								CHANNELS 3 Zrotation Yrotation Xrotation
								End Site
								{
									OFFSET 0.000000 0.000000 0.000000
								}
							}
						}
					}
					JOINT LeftShoulder_virtual
					{
						OFFSET 0.000000 0.000000 0.000000
						CHANNELS 3 Zrotation Yrotation Xrotation
						JOINT LeftShoulder
						{
							OFFSET 4.392200 8.824978 0.174984
							CHANNELS 3 Zrotation Yrotation Xrotation
							JOINT LeftArm
							{
								OFFSET 8.771219 -2.981674 -0.026999
								CHANNELS 3 Zrotation Yrotation Xrotation
								JOINT LeftForeArm
								{
									OFFSET 8.512804 0.000000 -0.000000
									CHANNELS 3 Zrotation Yrotation Xrotation
									JOINT LeftHand
									{
										OFFSET 18.484802 0.000000 -0.000000
										CHANNELS 3 Zrotation Yrotation Xrotation
										End Site
										{
											OFFSET 0.000000 0.000000 0.000000
										}
									}
								}
							}
						}
					}
					JOINT RightShoulder_virtual
					{
						OFFSET 0.000000 0.000000 0.000000
						CHANNELS 3 Zrotation Yrotation Xrotation
						JOINT RightShoulder
						{
							OFFSET -4.392200 8.824993 0.141379
							CHANNELS 3 Zrotation Yrotation Xrotation
							JOINT RightArm
							{
								OFFSET -8.771282 -2.981682 -0.094208
								CHANNELS 3 Zrotation Yrotation Xrotation
								JOINT RightForeArm
								{
									OFFSET -8.494598 0.000000 0.000000
									CHANNELS 3 Zrotation Yrotation Xrotation
									JOINT RightHand
									{
										OFFSET -18.483803 0.000000 0.000001
										CHANNELS 3 Zrotation Yrotation Xrotation
										End Site
										{
											OFFSET 0.000000 0.000000 0.000000
										}
									}
								}
							}
						}
					}
				}
			}
		}
	}
}
MOTION
Frames: 5
Frame Time: 0.033333
-6.747123 4.259218 60.224251 179.912688 5.891323 -179.957385 13.075015 -4.276035 -54.221914 -15.922885 4.127147 -63.359628 28.000268 11.507101 22.336523 -8.829900 -11.859881 22.661263 0.000000 0.000000 0.000000 4.072690 8.373342 -55.423413 25.498088 17.870543 -68.478958 -12.739276 -8.158932 39.089688 -6.448056 23.566033 24.957166 0.000000 0.000000 0.000000 -0.336017 5.420458 -32.904330 -4.927734 -5.113338 -4.315352 -1.413912 -0.532111 12.114556 0.000440 0.024972 0.000548 -2.319122 0.237513 18.929774 1.543829 -12.644721 29.001301 0.000000 0.000000 0.000000 1.866192 0.952162 12.812491 -15.960588 -7.258361 16.135215 -32.208857 57.897683 28.077048 -12.889577 -49.311275 23.103689 0.000000 0.000000 0.000000 -4.286390 2.635909 12.799483 28.911484 8.110774 10.928129 38.344122 -54.474051 38.402192 -9.329106 52.057233 -7.425177 0.000000 0.000000 0.000000 
-6.736930 4.275043 60.281071 179.863210 6.022896 -179.978845 12.903754 -4.280005 -53.927209 -15.386442 4.241734 -63.885129 27.821148 11.568956 22.823349 -8.805258 -12.031882 23.031632 0.000000 0.000000 0.000000 3.882764 8.618439 -55.201640 25.809658 17.361631 -68.894452 -12.689846 -8.195874 39.355711 -6.602652 23.505936 25.207884 0.000000 0.000000 0.000000 -0.403979 5.436593 -32.434301 -4.778505 -5.186188 -4.390608 -1.344388 -0.540686 12.046097 -0.093604 0.019851 0.044810 -2.271401 0.287746 18.831327 1.345325 -12.578831 29.313847 0.000000 0.000000 0.000000 1.938161 0.989823 12.674345 -15.903819 -7.071040 16.135635 -31.444494 57.902587 28.874003 -12.963118 -49.669880 23.125386 0.000000 0.000000 0.000000 -4.224374 2.688221 12.684232 28.789695 8.001023 10.736707 37.517287 -54.714105 38.937426 -9.237260 52.375506 -7.367201 0.000000 0.000000 0.000000 
-6.717741 4.292898 60.333542 179.839127 6.282226 -179.964297 12.606281 -4.272877 -53.657741 -14.978634 4.396118 -64.633616 27.673222 11.677448 23.704385 -9.020696 -12.472546 23.189326 0.000000 0.000000 0.000000 3.692469 8.945212 -54.845818 26.135678 16.907816 -69.584622 -12.599610 -8.347171 40.064343 -6.514599 23.647841 25.374366 0.000000 0.000000 0.000000 -0.428582 5.622633 -31.944774 -4.705710 -5.277957 -4.458859 -1.367087 -0.541434 11.955993 -0.024424 0.041716 0.040751 -2.264736 0.284783 18.786835 1.181839 -12.305001 29.571492 0.000000 0.000000 0.000000 1.972091 1.022456 12.636676 -15.903797 -6.896525 16.149677 -30.801763 57.720453 29.513162 -12.952049 -49.944362 23.035330 0.000000 0.000000 0.000000 -4.236670 2.711642 12.653073 28.628031 7.896060 10.533197 36.896293 -54.963359 39.417073 -9.205423 52.609853 -7.434326 0.000000 0.000000 0.000000 
-6.689017 4.313105 60.401882 179.889383 6.366088 -179.902634 12.310257 -4.042958 -53.565800 -14.776843 4.952671 -65.756533 27.885663 11.620358 24.951217 -8.953136 -12.920860 22.984560 0.000000 0.000000 0.000000 3.517532 9.115715 -54.391935 26.510351 16.430858 -70.615413 -12.587533 -8.452666 41.106828 -6.645877 23.670570 25.416592 0.000000 0.000000 0.000000 -0.523522 5.746561 -31.480420 -4.543779 -5.343020 -4.517343 -1.300035 -0.528938 11.873288 -0.035586 0.060283 0.050945 -2.243180 0.302461 18.762386 1.022081 -12.208676 29.791800 0.000000 0.000000 0.000000 1.978062 1.030044 12.593524 -15.907654 -6.779021 15.923828 -30.106542 57.480072 30.123607 -12.960409 -50.178729 22.882641 0.000000 0.000000 0.000000 -4.227886 2.685483 12.576001 28.567338 7.731532 10.328590 36.305976 -55.186583 39.869740 -9.221894 52.846540 -7.485621 0.000000 0.000000 0.000000 
-6.661314 4.330367 60.470135 179.837925 6.354656 -179.978435 11.989441 -3.715228 -53.399372 -14.960404 5.770336 -67.164208 28.347131 11.368130 26.993106 -8.729479 -13.341706 22.870579 0.000000 0.000000 0.000000 3.258044 9.146376 -53.977032 26.973431 16.003205 -71.740701 -12.604654 -8.571335 42.415707 -6.909830 23.581915 25.348347 0.000000 0.000000 0.000000 -0.658529 5.825013 -30.985737 -4.411012 -5.490724 -4.478037 -1.302282 -0.571138 11.778602 -0.023698 0.052873 0.025902 -2.217303 0.293235 18.678173 0.865038 -12.014273 29.967294 0.000000 0.000000 0.000000 2.039537 1.059249 12.466314 -15.938632 -6.571757 15.795822 -29.595643 57.142520 30.489343 -12.897891 -50.288682 22.665795 0.000000 0.000000 0.000000 -4.187199 2.738917 12.449175 28.512819 7.599146 10.184684 35.892856 -55.351600 40.257657 -9.219833 52.941606 -7.536236 0.000000 0.000000 0.000000 
